<?xml version="1.0" encoding="utf-8"?>
<!-- Generator: Adobe Illustrator 18.1.1, SVG Export Plug-In . SVG Version: 6.00 Build 0)  -->
<!DOCTYPE svg PUBLIC "-//W3C//DTD SVG 1.1//EN" "http://www.w3.org/Graphics/SVG/1.1/DTD/svg11.dtd">
<svg version="1.1" id="Layer_1" xmlns="http://www.w3.org/2000/svg" xmlns:xlink="http://www.w3.org/1999/xlink" x="0px" y="0px"
	 viewBox="0 0 850 600" enable-background="new 0 0 850 600" xml:space="preserve">
<g>
	<g>
		<rect x="90.3" y="20.9" fill="#DA6F28" width="77.4" height="74.8"/>
		<rect x="90.3" y="101.5" fill="#DA6F28" width="77.4" height="74.8"/>
		<rect x="90.3" y="182" fill="#DA6F28" width="77.4" height="74.8"/>
		<rect x="90.3" y="262.6" fill="#DA6F28" width="77.4" height="74.8"/>
		<rect x="90.3" y="343.1" fill="#DA6F28" width="77.4" height="74.8"/>
		<rect x="90.3" y="423.7" fill="#DA6F28" width="77.4" height="74.8"/>
		<rect x="90.3" y="504.2" fill="#DA6F28" width="77.4" height="74.8"/>
	</g>
	<g>
		<rect x="252" y="125.3" fill="#2F997A" width="75.5" height="99.4"/>
		<rect x="332" y="125.3" fill="#2F997A" width="75.5" height="99.4"/>
		<rect x="252" y="20.9" fill="#2F997A" width="155.5" height="99.4"/>
		<rect x="252" y="229.6" fill="#2F997A" width="75.5" height="99.4"/>
		<rect x="332" y="229.6" fill="#2F997A" width="75.5" height="99.4"/>
		<rect x="252" y="333.9" fill="#2F997A" width="75.5" height="99.4"/>
		<rect x="332" y="333.9" fill="#2F997A" width="75.5" height="99.4"/>
	</g>
	<g>
		<rect x="627.4" y="20.9" fill="#B13532" width="64.2" height="104.1"/>
		<rect x="695.5" y="20.9" fill="#B13532" width="64.2" height="104.1"/>
		<rect x="627.6" y="129.9" fill="#B13532" width="64.2" height="104.1"/>
		<rect x="695.5" y="129.9" fill="#B13532" width="64.2" height="104.1"/>
		<rect x="491.7" y="129.9" fill="#B13532" width="64.2" height="104.1"/>
		<rect x="559.6" y="129.9" fill="#B13532" width="64.2" height="104.1"/>
		<rect x="491.7" y="20.9" fill="#B13532" width="132.1" height="104.1"/>
	</g>
</g>
<g>
	<circle fill="#555655" cx="182.9" cy="251.8" r="24.5"/>
	<g>
		<path fill="#FFFFFF" d="M189.6,258.5v2.8h-13.3v-2.8h5.2V246h-4v-2.2c1.1-0.2,2-0.4,2.8-0.6c0.8-0.2,1.5-0.6,2.1-0.9h2.5v16.3
			L189.6,258.5L189.6,258.5z"/>
	</g>
</g>
<g>
	<circle fill="#555655" cx="417.1" cy="251.8" r="24.5"/>
	<g>
		<path fill="#FFFFFF" d="M410.2,259.6c1.5-1.3,2.8-2.5,4-3.5c1.2-1.1,2.2-2.1,3-3c0.8-0.9,1.5-1.8,1.9-2.6c0.4-0.8,0.7-1.6,0.7-2.3
			c0-1-0.3-1.8-0.9-2.4c-0.6-0.6-1.5-0.9-2.7-0.9c-0.8,0-1.6,0.2-2.3,0.6c-0.7,0.4-1.3,0.9-1.9,1.5l-1.9-1.9
			c0.9-0.9,1.9-1.7,2.9-2.2s2.2-0.8,3.6-0.8c1,0,1.9,0.1,2.7,0.4c0.8,0.3,1.5,0.7,2.1,1.2s1,1.1,1.3,1.8c0.3,0.7,0.5,1.5,0.5,2.4
			c0,0.8-0.2,1.7-0.6,2.6c-0.4,0.9-1,1.8-1.7,2.6c-0.7,0.8-1.6,1.9-2.6,2.8s-2,1.9-3.1,2.9c0.6,0,1.1-0.1,1.8-0.1
			c0.6,0,1.2-0.1,1.7-0.1h5.4v2.9h-13.9V259.6z"/>
	</g>
</g>
<g>
	<circle fill="#555655" cx="628.7" cy="251.8" r="24.5"/>
	<g>
		<path fill="#FFFFFF" d="M623.2,256.8c0.6,0.6,1.4,1.1,2.2,1.5c0.9,0.4,1.8,0.6,2.8,0.6c1.2,0,2.2-0.3,2.9-0.8
			c0.8-0.5,1.2-1.2,1.2-2.1c0-0.5-0.1-0.9-0.3-1.3s-0.6-0.7-1.1-1s-1.1-0.5-2-0.6c-0.8-0.1-1.8-0.2-3-0.2v-2.5c1,0,1.9-0.1,2.6-0.2
			c0.7-0.1,1.3-0.4,1.8-0.6c0.4-0.3,0.8-0.6,1-1s0.3-0.8,0.3-1.2c0-0.8-0.3-1.4-0.9-1.9c-0.6-0.4-1.4-0.7-2.4-0.7
			c-0.8,0-1.6,0.2-2.3,0.5s-1.4,0.8-2,1.3l-1.8-2.1c0.9-0.7,1.8-1.3,2.9-1.7c1-0.4,2.2-0.7,3.4-0.7c1,0,1.9,0.1,2.7,0.3
			s1.5,0.5,2.1,1s1.1,1,1.4,1.6c0.3,0.6,0.5,1.3,0.5,2.1c0,1.1-0.4,2-1,2.7c-0.7,0.7-1.6,1.3-2.8,1.7v0.1c0.6,0.2,1.2,0.4,1.8,0.6
			c0.5,0.3,1,0.6,1.4,1s0.7,0.9,1,1.4c0.2,0.5,0.4,1.1,0.4,1.7c0,0.9-0.2,1.7-0.6,2.3c-0.4,0.7-0.9,1.3-1.6,1.7
			c-0.7,0.5-1.4,0.8-2.3,1.1c-0.9,0.2-1.8,0.4-2.8,0.4c-1.6,0-3-0.3-4.2-0.8s-2.1-1.2-2.8-1.9L623.2,256.8z"/>
	</g>
</g>
</svg>
